<?xml version="1.0" encoding="UTF-8"?>
<!DOCTYPE svg PUBLIC "-//W3C//DTD SVG 1.1//EN" "http://www.w3.org/Graphics/SVG/1.1/DTD/svg11.dtd">
<svg xmlns="http://www.w3.org/2000/svg" version="1.1" width="491px" height="117px" style="shape-rendering:geometricPrecision; text-rendering:geometricPrecision; image-rendering:optimizeQuality; fill-rule:evenodd; clip-rule:evenodd" xmlns:xlink="http://www.w3.org/1999/xlink">
<g><path style="opacity:0.971" fill="#00a062" d="M 47.5,-0.5 C 53.5,-0.5 59.5,-0.5 65.5,-0.5C 93.591,5.5936 109.591,22.9269 113.5,51.5C 112.448,51.6495 111.448,51.4828 110.5,51C 101.979,43.6447 93.3124,36.478 84.5,29.5C 75.1335,37.37 65.6335,45.0367 56,52.5C 46.3333,44.8333 36.6667,37.1667 27,29.5C 18.2394,37.4366 9.07273,44.7699 -0.5,51.5C -0.5,48.1667 -0.5,44.8333 -0.5,41.5C 7.11918,17.8785 23.1192,3.87854 47.5,-0.5 Z"/></g>
<g><path style="opacity:0.917" fill="#02a163" d="M 329.5,36.5 C 343.599,35.5353 351.266,42.0353 352.5,56C 349.269,73.7563 339.269,79.0897 322.5,72C 314.719,63.3728 313.553,53.8728 319,43.5C 322.043,40.2459 325.543,37.9125 329.5,36.5 Z M 332.5,43.5 C 339.885,44.385 343.551,48.5517 343.5,56C 342.936,65.9118 337.936,69.5785 328.5,67C 322.996,61.1369 322.163,54.6369 326,47.5C 328.013,45.7518 330.18,44.4185 332.5,43.5 Z"/></g>
<g><path style="opacity:0.895" fill="#01a062" d="M 441.5,36.5 C 447.233,35.8911 452.4,37.2245 457,40.5C 456.602,42.6313 455.602,44.6313 454,46.5C 450.189,43.5509 446.022,42.8842 441.5,44.5C 440.24,46.3529 440.24,48.1862 441.5,50C 447.196,51.9303 452.363,54.7636 457,58.5C 459.664,69.1979 455.331,74.8646 444,75.5C 439.084,75.1217 434.584,73.6217 430.5,71C 431.861,69.4157 432.528,67.5824 432.5,65.5C 436.254,66.6858 440.087,67.6858 444,68.5C 447.124,68.2549 449.291,66.7549 450.5,64C 450.355,63.228 450.022,62.5613 449.5,62C 444.876,59.7366 440.209,57.57 435.5,55.5C 431.601,51.2512 430.934,46.5845 433.5,41.5C 435.725,38.9062 438.391,37.2395 441.5,36.5 Z"/></g>
<g><path style="opacity:0.886" fill="#00a162" d="M 145.5,37.5 C 148.119,37.2317 150.619,37.565 153,38.5C 157,46.5 161,54.5 165,62.5C 168.597,54.5414 172.097,46.5414 175.5,38.5C 178.086,37.52 180.753,37.1866 183.5,37.5C 183.5,49.8333 183.5,62.1667 183.5,74.5C 181.167,74.5 178.833,74.5 176.5,74.5C 176.666,67.4921 176.5,60.4921 176,53.5C 173.167,59.8333 170.333,66.1667 167.5,72.5C 165.5,73.8333 163.5,73.8333 161.5,72.5C 158.57,66.2085 155.736,59.8751 153,53.5C 152.5,60.4921 152.334,67.4921 152.5,74.5C 150.167,74.5 147.833,74.5 145.5,74.5C 145.5,62.1667 145.5,49.8333 145.5,37.5 Z"/></g>
<g><path style="opacity:0.88" fill="#00a162" d="M 189.5,37.5 C 197.833,37.5 206.167,37.5 214.5,37.5C 214.5,39.8333 214.5,42.1667 214.5,44.5C 208.833,44.5 203.167,44.5 197.5,44.5C 197.5,47.1667 197.5,49.8333 197.5,52.5C 202.167,52.5 206.833,52.5 211.5,52.5C 211.5,54.8333 211.5,57.1667 211.5,59.5C 206.833,59.5 202.167,59.5 197.5,59.5C 197.5,62.1667 197.5,64.8333 197.5,67.5C 203.167,67.5 208.833,67.5 214.5,67.5C 214.5,69.8333 214.5,72.1667 214.5,74.5C 206.167,74.5 197.833,74.5 189.5,74.5C 189.5,62.1667 189.5,49.8333 189.5,37.5 Z"/></g>
<g><path style="opacity:0.941" fill="#00a062" d="M 218.5,37.5 C 228.5,37.5 238.5,37.5 248.5,37.5C 248.5,39.8333 248.5,42.1667 248.5,44.5C 244.833,44.5 241.167,44.5 237.5,44.5C 237.5,54.5 237.5,64.5 237.5,74.5C 234.833,74.5 232.167,74.5 229.5,74.5C 229.5,64.5 229.5,54.5 229.5,44.5C 225.833,44.5 222.167,44.5 218.5,44.5C 218.5,42.1667 218.5,39.8333 218.5,37.5 Z"/></g>
<g><path style="opacity:0.91" fill="#01a061" d="M 258.5,37.5 C 261.247,37.1866 263.914,37.52 266.5,38.5C 271.243,50.4 275.577,62.4 279.5,74.5C 274.039,75.6745 270.706,73.6745 269.5,68.5C 264.833,67.1667 260.167,67.1667 255.5,68.5C 254.253,70.323 253.586,72.323 253.5,74.5C 250.833,74.5 248.167,74.5 245.5,74.5C 249.55,62.0662 253.884,49.7328 258.5,37.5 Z M 261.5,48.5 C 263.922,52.0764 265.589,56.0764 266.5,60.5C 263.833,60.5 261.167,60.5 258.5,60.5C 259.5,56.5 260.5,52.5 261.5,48.5 Z"/></g>
<g><path style="opacity:0.897" fill="#00a062" d="M 289.5,37.5 C 297.167,37.5 304.833,37.5 312.5,37.5C 312.5,39.8333 312.5,42.1667 312.5,44.5C 307.5,44.5 302.5,44.5 297.5,44.5C 297.5,47.5 297.5,50.5 297.5,53.5C 301.833,53.5 306.167,53.5 310.5,53.5C 310.5,55.8333 310.5,58.1667 310.5,60.5C 306.167,60.5 301.833,60.5 297.5,60.5C 297.5,65.1667 297.5,69.8333 297.5,74.5C 294.833,74.5 292.167,74.5 289.5,74.5C 289.5,62.1667 289.5,49.8333 289.5,37.5 Z"/></g>
<g><path style="opacity:0.892" fill="#00a162" d="M 355.5,37.5 C 362.175,37.3337 368.842,37.5004 375.5,38C 382.666,40.8341 385.166,46.0008 383,53.5C 381.913,56.5812 380.08,59.0812 377.5,61C 380.16,65.317 382.827,69.6503 385.5,74C 382.5,74.6667 379.5,74.6667 376.5,74C 374.543,69.9167 372.21,66.0834 369.5,62.5C 367.604,61.5344 365.604,61.2011 363.5,61.5C 363.5,65.8333 363.5,70.1667 363.5,74.5C 360.833,74.5 358.167,74.5 355.5,74.5C 355.5,62.1667 355.5,49.8333 355.5,37.5 Z M 363.5,44.5 C 366.85,44.335 370.183,44.5017 373.5,45C 376.059,47.9253 376.059,50.9253 373.5,54C 370.312,55.3158 366.978,55.8158 363.5,55.5C 363.5,51.8333 363.5,48.1667 363.5,44.5 Z"/></g>
<g><path style="opacity:0.878" fill="#00a161" d="M 403.5,37.5 C 411.5,37.5 419.5,37.5 427.5,37.5C 427.5,39.8333 427.5,42.1667 427.5,44.5C 421.833,44.5 416.167,44.5 410.5,44.5C 410.5,47.1667 410.5,49.8333 410.5,52.5C 415.5,52.5 420.5,52.5 425.5,52.5C 425.5,54.8333 425.5,57.1667 425.5,59.5C 420.5,59.5 415.5,59.5 410.5,59.5C 410.5,62.1667 410.5,64.8333 410.5,67.5C 416.167,67.5 421.833,67.5 427.5,67.5C 427.5,69.8333 427.5,72.1667 427.5,74.5C 419.5,74.5 411.5,74.5 403.5,74.5C 403.5,62.1667 403.5,49.8333 403.5,37.5 Z"/></g>
<g><path style="opacity:0.845" fill="#00a062" d="M 490.5,37.5 C 490.5,39.8333 490.5,42.1667 490.5,44.5C 486.833,44.5 483.167,44.5 479.5,44.5C 479.5,54.5 479.5,64.5 479.5,74.5C 476.833,74.5 474.167,74.5 471.5,74.5C 471.5,64.5 471.5,54.5 471.5,44.5C 467.833,44.5 464.167,44.5 460.5,44.5C 460.5,42.1667 460.5,39.8333 460.5,37.5C 470.5,37.5 480.5,37.5 490.5,37.5 Z"/></g>
<g><path style="opacity:0.976" fill="#00a162" d="M 50.5,116.5 C 49.1667,116.5 47.8333,116.5 46.5,116.5C 46.7662,112.429 46.4328,108.429 45.5,104.5C 41.2898,102.65 36.9564,100.983 32.5,99.5C 31.1667,81.5 31.1667,63.5 32.5,45.5C 40.458,51.4559 48.1247,57.7893 55.5,64.5C 63.4781,58.3562 71.3114,52.0229 79,45.5C 79.6667,63.8333 79.6667,82.1667 79,100.5C 69.9718,106.762 60.4718,112.095 50.5,116.5 Z"/></g>
<g><path style="opacity:0.816" fill="#049f61" d="M 391.5,44.5 C 396.942,44.8857 398.275,47.3857 395.5,52C 389.403,52.1475 388.07,49.6475 391.5,44.5 Z"/></g>
<g><path style="opacity:0.94" fill="#00a162" d="M 21.5,45.5 C 22.8266,61.3383 22.8266,77.3383 21.5,93.5C 10.8359,86.3267 3.83592,76.4934 0.5,64C 7.33438,57.6669 14.3344,51.5002 21.5,45.5 Z"/></g>
<g><path style="opacity:0.929" fill="#01a163" d="M 88.5,46.5 C 88.56,45.9569 88.8933,45.6236 89.5,45.5C 97.474,51.1442 104.807,57.4776 111.5,64.5C 110.986,67.2106 109.986,69.7106 108.5,72C 102.199,68.2395 96.1989,63.7395 90.5,58.5C 89.833,54.3525 89.1663,50.3525 88.5,46.5 Z"/></g>
<g><path style="opacity:0.862" fill="#019f63" d="M 391.5,59.5 C 394.833,58.8333 396.833,60.1667 397.5,63.5C 394.613,68.711 391.946,68.711 389.5,63.5C 389.752,61.9271 390.418,60.5938 391.5,59.5 Z"/></g>
<g><path style="opacity:0.925" fill="#01a162" d="M 88.5,70.5 C 88.8966,69.475 89.5632,69.3083 90.5,70C 94.8333,73.6667 99.1667,77.3333 103.5,81C 99.9419,86.2263 95.4419,90.393 90,93.5C 89.5,93.3333 89,93.1667 88.5,93C 89.8271,85.4015 89.8271,77.9015 88.5,70.5 Z"/></g>
</svg>
